<svg width="66" height="65" viewBox="0 0 66 65" fill="none" xmlns="http://www.w3.org/2000/svg">
<path d="M45.3333 0H20.3333C9.28756 0 0.333252 8.9543 0.333252 20V45C0.333252 56.0457 9.28756 65 20.3333 65H45.3333C56.3789 65 65.3333 56.0457 65.3333 45V20C65.3333 8.9543 56.3789 0 45.3333 0Z" fill="url(#paint0_linear_147_479)"/>
<path fill-rule="evenodd" clip-rule="evenodd" d="M19.9001 32.5C19.9001 32.255 19.9975 32.0201 20.1707 31.8468C20.3439 31.6736 20.5789 31.5763 20.8239 31.5763H42.6111L36.7971 25.7641C36.6237 25.5907 36.5262 25.3554 36.5262 25.1101C36.5262 24.8648 36.6237 24.6296 36.7971 24.4561C36.9706 24.2827 37.2058 24.1852 37.4511 24.1852C37.6964 24.1852 37.9317 24.2827 38.1051 24.4561L45.495 31.846C45.581 31.9318 45.6493 32.0337 45.6959 32.146C45.7424 32.2582 45.7664 32.3785 45.7664 32.5C45.7664 32.6215 45.7424 32.7418 45.6959 32.854C45.6493 32.9663 45.581 33.0682 45.495 33.154L38.1051 40.5439C37.9317 40.7173 37.6964 40.8148 37.4511 40.8148C37.2058 40.8148 36.9706 40.7173 36.7971 40.5439C36.6237 40.3704 36.5262 40.1352 36.5262 39.8899C36.5262 39.6446 36.6237 39.4093 36.7971 39.2359L42.6111 33.4237H20.8239C20.5789 33.4237 20.3439 33.3264 20.1707 33.1532C19.9975 32.9799 19.9001 32.745 19.9001 32.5Z" fill="#FCFAF9"/>
<defs>
<linearGradient id="paint0_linear_147_479" x1="0.333252" y1="0" x2="72.8085" y2="9.81785" gradientUnits="userSpaceOnUse">
<stop stop-color="#FBA89D"/>
<stop offset="1" stop-color="#FBBFB7"/>
</linearGradient>
</defs>
</svg>
